<svg xmlns="http://www.w3.org/2000/svg" xmlns:xlink="http://www.w3.org/1999/xlink" width="500" zoomAndPan="magnify" viewBox="0 0 375 374.999991" height="500" preserveAspectRatio="xMidYMid meet" version="1.0"><defs><filter x="0%" y="0%" width="100%" xlink:type="simple" xlink:actuate="onLoad" height="100%" id="id1" xlink:show="other"><feColorMatrix values="0 0 0 0 1 0 0 0 0 1 0 0 0 0 1 0 0 0 1 0" color-interpolation-filters="sRGB"/></filter><clipPath id="id2"><path d="M 19.535156 237 L 355.535156 237 L 355.535156 370.933594 L 19.535156 370.933594 Z M 19.535156 237 " clip-rule="nonzero"/></clipPath><clipPath id="id3"><path d="M 80 4.183594 L 295 4.183594 L 295 218 L 80 218 Z M 80 4.183594 " clip-rule="nonzero"/></clipPath><mask id="id4"><g filter="url(#id1)"><rect x="-37.5" width="450" fill="rgb(0%, 0%, 0%)" y="-37.499999" height="449.999989" fill-opacity="0.6"/></g></mask><clipPath id="id5"><path d="M 1.191406 0.351562 L 109.941406 0.351562 L 109.941406 130 L 1.191406 130 Z M 1.191406 0.351562 " clip-rule="nonzero"/></clipPath><clipPath id="id6"><path d="M 32 140 L 64 140 L 64 171.351562 L 32 171.351562 Z M 32 140 " clip-rule="nonzero"/></clipPath><clipPath id="id7"><rect x="0" width="111" y="0" height="172"/></clipPath></defs><rect x="-37.5" width="450" fill="rgb(100%, 100%, 100%)" y="-37.499999" height="449.999989" fill-opacity="1"/><rect x="-37.5" width="450" fill="rgb(85.099792%, 85.099792%, 85.099792%)" y="-37.499999" height="449.999989" fill-opacity="1"/><rect x="-37.5" width="450" fill="rgb(100%, 100%, 100%)" y="-37.499999" height="449.999989" fill-opacity="1"/><rect x="-37.5" width="450" fill="rgb(85.099792%, 85.099792%, 85.099792%)" y="-37.499999" height="449.999989" fill-opacity="1"/><g clip-path="url(#id2)"><path fill="rgb(66.268921%, 66.268921%, 66.268921%)" d="M 355.460938 370.894531 C 355.519531 369.46875 355.601562 368.050781 355.601562 366.621094 C 355.601562 295.046875 280.382812 237.039062 187.589844 237.039062 C 94.796875 237.039062 19.578125 295.046875 19.578125 366.621094 C 19.578125 368.050781 19.652344 369.46875 19.710938 370.894531 L 355.460938 370.894531 " fill-opacity="1" fill-rule="nonzero"/></g><g clip-path="url(#id3)"><path fill="rgb(66.268921%, 66.268921%, 66.268921%)" d="M 294.375 111.015625 C 294.375 170.003906 246.5625 217.816406 187.589844 217.816406 C 128.609375 217.816406 80.796875 170.003906 80.796875 111.015625 C 80.796875 52.035156 128.609375 4.21875 187.589844 4.21875 C 246.5625 4.21875 294.375 52.035156 294.375 111.015625 " fill-opacity="1" fill-rule="nonzero"/></g><g mask="url(#id4)"><g transform="matrix(1, 0, 0, 1, 132, 24)"><g clip-path="url(#id7)"><g clip-path="url(#id5)"><path fill="rgb(91.369629%, 91.369629%, 91.369629%)" d="M 47.800781 129.898438 C 39.21875 129.898438 32.265625 122.9375 32.265625 114.351562 L 32.265625 93.625 C 32.265625 85.039062 39.21875 78.078125 47.800781 78.078125 C 50.921875 78.046875 78.871094 72.898438 78.871094 52.171875 C 78.871094 41.808594 68.515625 31.441406 52.976562 31.441406 C 40.335938 31.441406 32.265625 41.808594 32.265625 46.988281 C 32.265625 55.574219 25.308594 62.535156 16.726562 62.535156 C 8.148438 62.535156 1.191406 55.574219 1.191406 46.988281 C 1.191406 21.710938 24.910156 0.351562 52.976562 0.351562 C 94.40625 0.351562 109.941406 31.351562 109.941406 57.351562 C 109.941406 78.832031 98.152344 95.246094 76.734375 103.574219 C 72.070312 105.394531 67.460938 106.617188 63.335938 107.445312 L 63.335938 114.351562 C 63.335938 122.9375 56.378906 129.898438 47.800781 129.898438 Z M 47.800781 129.898438 " fill-opacity="1" fill-rule="nonzero"/></g><g clip-path="url(#id6)"><path fill="rgb(91.369629%, 91.369629%, 91.369629%)" d="M 63.335938 155.808594 C 63.335938 156.828125 63.234375 157.839844 63.035156 158.839844 C 62.839844 159.839844 62.542969 160.8125 62.152344 161.757812 C 61.761719 162.699219 61.285156 163.59375 60.71875 164.445312 C 60.152344 165.292969 59.507812 166.078125 58.785156 166.800781 C 58.0625 167.519531 57.277344 168.164062 56.429688 168.734375 C 55.582031 169.300781 54.6875 169.777344 53.746094 170.167969 C 52.800781 170.558594 51.832031 170.855469 50.832031 171.054688 C 49.832031 171.253906 48.820312 171.351562 47.800781 171.351562 C 46.78125 171.351562 45.769531 171.253906 44.769531 171.054688 C 43.769531 170.855469 42.796875 170.558594 41.855469 170.167969 C 40.910156 169.777344 40.015625 169.300781 39.167969 168.734375 C 38.320312 168.164062 37.535156 167.519531 36.8125 166.800781 C 36.09375 166.078125 35.449219 165.292969 34.882812 164.445312 C 34.316406 163.59375 33.835938 162.699219 33.445312 161.757812 C 33.054688 160.8125 32.761719 159.839844 32.5625 158.839844 C 32.363281 157.839844 32.265625 156.828125 32.265625 155.808594 C 32.265625 154.785156 32.363281 153.773438 32.5625 152.773438 C 32.761719 151.773438 33.054688 150.800781 33.445312 149.859375 C 33.835938 148.914062 34.316406 148.019531 34.882812 147.171875 C 35.449219 146.320312 36.09375 145.535156 36.8125 144.816406 C 37.535156 144.09375 38.320312 143.449219 39.167969 142.882812 C 40.015625 142.3125 40.910156 141.835938 41.855469 141.445312 C 42.796875 141.054688 43.769531 140.757812 44.769531 140.558594 C 45.769531 140.359375 46.78125 140.261719 47.800781 140.261719 C 48.820312 140.261719 49.832031 140.359375 50.832031 140.558594 C 51.832031 140.757812 52.800781 141.054688 53.746094 141.445312 C 54.6875 141.835938 55.582031 142.3125 56.429688 142.882812 C 57.277344 143.449219 58.0625 144.09375 58.785156 144.816406 C 59.507812 145.535156 60.152344 146.320312 60.71875 147.171875 C 61.285156 148.019531 61.761719 148.914062 62.152344 149.859375 C 62.542969 150.800781 62.839844 151.773438 63.035156 152.773438 C 63.234375 153.773438 63.335938 154.785156 63.335938 155.808594 Z M 63.335938 155.808594 " fill-opacity="1" fill-rule="nonzero"/></g></g></g></g></svg>