<svg xmlns="http://www.w3.org/2000/svg" xmlns:xlink="http://www.w3.org/1999/xlink" width="40" zoomAndPan="magnify" viewBox="0 0 30 30.000001" height="40" preserveAspectRatio="xMidYMid meet" version="1.0"><defs><clipPath id="id1"><path d="M 26 3 L 27.757812 3 L 27.757812 5 L 26 5 Z M 26 3 " clip-rule="nonzero"/></clipPath><clipPath id="id2"><path d="M 24 0.902344 L 26 0.902344 L 26 2 L 24 2 Z M 24 0.902344 " clip-rule="nonzero"/></clipPath><clipPath id="id3"><path d="M 26 1 L 27.757812 1 L 27.757812 3 L 26 3 Z M 26 1 " clip-rule="nonzero"/></clipPath><clipPath id="id4"><path d="M 26.917969 2.320312 L 27.757812 2.320312 L 27.757812 3.1875 L 26.917969 3.1875 Z M 26.917969 2.320312 " clip-rule="nonzero"/></clipPath><clipPath id="id5"><path d="M 2.355469 11.339844 L 16.078125 11.339844 L 16.078125 28.480469 L 2.355469 28.480469 Z M 2.355469 11.339844 " clip-rule="nonzero"/></clipPath><clipPath id="id6"><path d="M 23 1 L 27.757812 1 L 27.757812 5 L 23 5 Z M 23 1 " clip-rule="nonzero"/></clipPath></defs><path fill="rgb(98.81897%, 91.369629%, 59.999084%)" d="M 26.625 3.695312 L 26.480469 3.847656 L 25.953125 3.339844 L 26.101562 3.183594 L 26.625 3.695312 " fill-opacity="1" fill-rule="nonzero"/><g clip-path="url(#id1)"><path fill="rgb(98.81897%, 91.369629%, 59.999084%)" d="M 26.457031 4.351562 L 26.648438 4.339844 C 26.648438 4.339844 26.644531 4.171875 26.789062 4 C 26.9375 3.832031 27.152344 3.859375 27.152344 3.859375 L 27.125 3.648438 C 27.125 3.648438 26.652344 3.71875 26.5 3.570312 L 26.351562 3.726562 C 26.351562 3.726562 26.535156 4.066406 26.457031 4.351562 " fill-opacity="1" fill-rule="nonzero"/></g><path fill="rgb(98.81897%, 91.369629%, 59.999084%)" d="M 24.484375 2.230469 L 24.621094 2.070312 L 25.179688 2.539062 L 25.042969 2.703125 L 24.484375 2.230469 " fill-opacity="1" fill-rule="nonzero"/><path fill="rgb(98.81897%, 91.369629%, 59.999084%)" d="M 24.609375 1.566406 L 24.417969 1.589844 C 24.417969 1.589844 24.433594 1.757812 24.300781 1.9375 C 24.164062 2.117188 23.949219 2.105469 23.949219 2.105469 L 23.992188 2.3125 C 23.992188 2.3125 24.457031 2.210938 24.621094 2.347656 L 24.757812 2.183594 C 24.757812 2.183594 24.550781 1.855469 24.609375 1.566406 " fill-opacity="1" fill-rule="nonzero"/><path fill="rgb(98.81897%, 91.369629%, 59.999084%)" d="M 25.246094 1.570312 L 25.382812 1.40625 L 25.941406 1.878906 L 25.804688 2.039062 L 25.246094 1.570312 " fill-opacity="1" fill-rule="nonzero"/><g clip-path="url(#id2)"><path fill="rgb(98.81897%, 91.369629%, 59.999084%)" d="M 25.371094 0.902344 L 25.179688 0.925781 C 25.179688 0.925781 25.195312 1.09375 25.0625 1.273438 C 24.925781 1.453125 24.710938 1.441406 24.710938 1.441406 L 24.753906 1.648438 C 24.753906 1.648438 25.21875 1.546875 25.382812 1.683594 L 25.515625 1.519531 C 25.515625 1.519531 25.3125 1.191406 25.371094 0.902344 " fill-opacity="1" fill-rule="nonzero"/></g><g clip-path="url(#id3)"><path fill="rgb(98.81897%, 91.369629%, 59.999084%)" d="M 27.230469 2.496094 L 27.085938 2.648438 L 26.558594 2.140625 L 26.707031 1.984375 L 27.230469 2.496094 " fill-opacity="1" fill-rule="nonzero"/></g><g clip-path="url(#id4)"><path fill="rgb(98.81897%, 91.369629%, 59.999084%)" d="M 27.0625 3.152344 L 27.253906 3.140625 C 27.253906 3.140625 27.25 2.972656 27.394531 2.800781 C 27.542969 2.628906 27.757812 2.660156 27.757812 2.660156 L 27.730469 2.449219 C 27.730469 2.449219 27.257812 2.519531 27.105469 2.371094 L 26.957031 2.523438 C 26.957031 2.523438 27.140625 2.867188 27.0625 3.152344 " fill-opacity="1" fill-rule="nonzero"/></g><g clip-path="url(#id5)"><path fill="rgb(30.589294%, 66.668701%, 69.40918%)" d="M 13.238281 11.363281 C 13.238281 11.363281 11.734375 11.464844 10.832031 12.882812 C 10.246094 13.800781 9.207031 16.664062 8.175781 17.289062 C 7.140625 17.917969 3.171875 19.027344 2.554688 20.730469 C 1.933594 22.4375 2.824219 25.324219 4.355469 26.675781 C 5.886719 28.027344 9.617188 29.71875 11.308594 27.148438 C 13.003906 24.578125 12.617188 22.203125 13.105469 21.878906 C 13.597656 21.554688 15.253906 20.949219 15.722656 20.453125 C 16.195312 19.960938 16.246094 19.1875 15.476562 19.355469 C 14.707031 19.523438 13.742188 19.417969 13.289062 19.148438 C 12.832031 18.882812 12.65625 18.417969 12.65625 18.417969 L 12.445312 15.929688 C 12.445312 15.929688 11.988281 13.714844 12.542969 13.097656 C 13.097656 12.484375 13.839844 11.792969 13.238281 11.363281 " fill-opacity="1" fill-rule="nonzero"/></g><path fill="rgb(98.81897%, 91.369629%, 59.999084%)" d="M 23.996094 3.5625 L 10.207031 18.003906 L 11.640625 19.4375 L 24.871094 4.238281 L 23.996094 3.5625 " fill-opacity="1" fill-rule="nonzero"/><g clip-path="url(#id6)"><path fill="rgb(30.589294%, 66.668701%, 69.40918%)" d="M 24.871094 4.238281 L 25.902344 4.058594 L 27.445312 1.902344 L 26.667969 1.140625 C 26.667969 1.140625 25.003906 2.414062 24.605469 2.523438 C 24.210938 2.636719 24.210938 2.636719 24.210938 2.636719 L 23.996094 3.5625 L 24.871094 4.238281 " fill-opacity="1" fill-rule="nonzero"/></g><path fill="rgb(98.81897%, 91.369629%, 59.999084%)" d="M 7.890625 24.597656 L 6.617188 25.945312 L 4.363281 23.785156 L 5.636719 22.433594 L 7.890625 24.597656 " fill-opacity="1" fill-rule="nonzero"/><path fill="rgb(98.81897%, 91.369629%, 59.999084%)" d="M 9.453125 22.9375 L 9.050781 23.367188 L 6.796875 21.207031 L 7.203125 20.777344 L 9.453125 22.9375 " fill-opacity="1" fill-rule="nonzero"/><path fill="rgb(98.81897%, 91.369629%, 59.999084%)" d="M 10.175781 20.617188 L 9.769531 21.046875 L 8.214844 19.554688 L 8.621094 19.125 L 10.175781 20.617188 " fill-opacity="1" fill-rule="nonzero"/><path fill="rgb(98.81897%, 91.369629%, 59.999084%)" d="M 11.53125 21.199219 L 11.125 21.625 L 9.734375 20.292969 L 10.140625 19.863281 L 11.53125 21.199219 " fill-opacity="1" fill-rule="nonzero"/><path fill="rgb(98.81897%, 91.369629%, 59.999084%)" d="M 8.476562 27.335938 C 8.476562 27.574219 8.28125 27.769531 8.042969 27.769531 C 7.804688 27.769531 7.609375 27.574219 7.609375 27.335938 C 7.609375 27.09375 7.804688 26.898438 8.042969 26.898438 C 8.28125 26.898438 8.476562 27.09375 8.476562 27.335938 " fill-opacity="1" fill-rule="nonzero"/><path fill="rgb(98.81897%, 91.369629%, 59.999084%)" d="M 10.167969 27.335938 C 10.167969 27.574219 9.976562 27.769531 9.734375 27.769531 C 9.496094 27.769531 9.304688 27.574219 9.304688 27.335938 C 9.304688 27.09375 9.496094 26.898438 9.734375 26.898438 C 9.976562 26.898438 10.167969 27.09375 10.167969 27.335938 " fill-opacity="1" fill-rule="nonzero"/><path fill="rgb(98.81897%, 91.369629%, 59.999084%)" d="M 9.792969 25.507812 C 9.792969 25.75 9.601562 25.945312 9.363281 25.945312 C 9.121094 25.945312 8.929688 25.75 8.929688 25.507812 C 8.929688 25.269531 9.121094 25.070312 9.363281 25.070312 C 9.601562 25.070312 9.792969 25.269531 9.792969 25.507812 " fill-opacity="1" fill-rule="nonzero"/><path fill="rgb(98.81897%, 91.369629%, 59.999084%)" d="M 11.488281 25.507812 C 11.488281 25.75 11.292969 25.945312 11.054688 25.945312 C 10.816406 25.945312 10.621094 25.75 10.621094 25.507812 C 10.621094 25.269531 10.816406 25.070312 11.054688 25.070312 C 11.292969 25.070312 11.488281 25.269531 11.488281 25.507812 " fill-opacity="1" fill-rule="nonzero"/><path fill="rgb(98.81897%, 91.369629%, 59.999084%)" d="M 25.246094 2.785156 C 25.246094 2.859375 25.1875 2.917969 25.113281 2.917969 C 25.039062 2.917969 24.976562 2.859375 24.976562 2.785156 C 24.976562 2.707031 25.039062 2.648438 25.113281 2.648438 C 25.1875 2.648438 25.246094 2.707031 25.246094 2.785156 " fill-opacity="1" fill-rule="nonzero"/><path fill="rgb(98.81897%, 91.369629%, 59.999084%)" d="M 26.085938 3.339844 C 26.085938 3.414062 26.027344 3.472656 25.953125 3.472656 C 25.878906 3.472656 25.820312 3.414062 25.820312 3.339844 C 25.820312 3.265625 25.878906 3.203125 25.953125 3.203125 C 26.027344 3.203125 26.085938 3.265625 26.085938 3.339844 " fill-opacity="1" fill-rule="nonzero"/><path fill="rgb(98.81897%, 91.369629%, 59.999084%)" d="M 26.691406 2.453125 C 26.691406 2.527344 26.632812 2.585938 26.558594 2.585938 C 26.484375 2.585938 26.425781 2.527344 26.425781 2.453125 C 26.425781 2.378906 26.484375 2.316406 26.558594 2.316406 C 26.632812 2.316406 26.691406 2.378906 26.691406 2.453125 " fill-opacity="1" fill-rule="nonzero"/><path fill="rgb(98.81897%, 91.369629%, 59.999084%)" d="M 26.074219 2.121094 C 26.074219 2.195312 26.015625 2.253906 25.941406 2.253906 C 25.867188 2.253906 25.808594 2.195312 25.808594 2.121094 C 25.808594 2.046875 25.867188 1.984375 25.941406 1.984375 C 26.015625 1.984375 26.074219 2.046875 26.074219 2.121094 " fill-opacity="1" fill-rule="nonzero"/></svg>